Coordinates
version=1
nRows=6
nColumns=36
inDegrees=yes

Units are S.I. units (second, meters, Newtons, ...)
If the header above contains a line with 'inDegrees', this indicates whether rotational values are in degrees (yes) or radians (no).

endheader
time	pelvis_tilt	pelvis_list	pelvis_rotation	pelvis_tx	pelvis_ty	pelvis_tz	hip_flexion_r	hip_adduction_r	hip_rotation_r	knee_angle_r	knee_angle_r_beta	ankle_angle_r	subtalar_angle_r	mtp_angle_r	hip_flexion_l	hip_adduction_l	hip_rotation_l	knee_angle_l	knee_angle_l_beta	ankle_angle_l	subtalar_angle_l	mtp_angle_l	lumbar_extension	lumbar_bending	lumbar_rotation	arm_flex_r	arm_add_r	arm_rot_r	elbow_flex_r	pro_sup_r	arm_flex_l	arm_add_l	arm_rot_l	elbow_flex_l	pro_sup_l
      0.00000000	     -4.75862892	     -4.16136446	      8.02828905	     -0.05304457	      0.89846184	     -0.25753891	     33.32081988	      1.32370192	     -2.78561205	     16.96450718	      0.29608651	    -11.06776346	    -18.16281280	     -5.00974136	    -15.22967960	     -4.69254638	     -0.35639184	     13.74921193	      0.23996902	     18.26146538	     10.27798373	     -5.00974136	     -4.05543882	      8.42460259	    -14.29150519	     -6.57049118	    -11.87735105	      3.70693916	     33.34704728	    105.53469331	      1.72846583	    -10.46163225	     -2.13454801	     47.64902384	     98.67055293
      0.01000000	     -4.31700960	     -5.14379038	      7.69313724	     -0.04004440	      0.89889365	     -0.25656980	     33.07157408	      2.72320386	     -2.34971426	     18.73877883	      0.32705339	    -10.59150015	    -18.93859081	     -5.03425656	    -15.44513450	     -5.84688803	     -0.31774409	     15.62152912	      0.27264712	     16.97631126	      9.31230139	     -5.03425656	     -4.44384855	     10.18347390	    -13.95374850	     -6.28486657	    -12.15090473	      3.54400477	     32.94645849	    105.51880112	      1.03322573	     -9.82949017	     -2.23837945	     47.07783060	     98.69858025
      0.02000000	     -3.92926568	     -6.07293775	      7.39992644	     -0.02711007	      0.89936996	     -0.25554890	     32.78915456	      4.06822816	     -1.94937604	     20.33224473	      0.35486461	    -10.23322205	    -19.69761221	     -5.05568777	    -15.52557963	     -6.92240938	     -0.12020606	     17.63132604	      0.30772469	     15.50058411	      8.18886254	     -5.05568777	     -4.80218742	     11.83487717	    -13.64727076	     -5.99129562	    -12.37753726	      3.40343275	     32.53052645	    105.49787429	      0.34789663	     -9.21703002	     -2.35464043	     46.44784420	     98.70179334
      0.03000000	     -3.62545425	     -6.89922777	      7.17091522	     -0.01422845	      0.89997934	     -0.25456188	     32.43124214	      5.28074341	     -1.64070100	     21.63476649	      0.37759791	     -9.88201561	    -20.48996402	     -5.08152337	    -15.32566657	     -7.86541549	      0.19414398	     19.93893397	      0.34800005	     13.71230058	      6.69595006	     -5.08152337	     -5.07719666	     13.34996772	    -13.45202605	     -5.66626092	    -12.57677817	      3.26756679	     32.04255970	    105.47501094	     -0.34998039	     -8.64065529	     -2.45837607	     45.71872170	     98.70358181
      0.04000000	     -3.56510176	     -7.57912342	      6.98890927	     -0.00146209	      0.90064372	     -0.25353317	     32.16307460	      6.30192919	     -1.40136102	     22.63951416	      0.39513406	     -9.69862187	    -21.26941697	     -5.13890657	    -14.72106491	     -8.53212842	      1.06080041	     22.39818270	      0.39092203	     11.31933022	      4.06072210	     -5.13890657	     -5.01343793	     14.61028186	    -13.45601739	     -5.20736578	    -12.67562037	      3.21017663	     31.32620875	    105.47006064	     -1.10801969	     -8.12040230	     -2.47570454	     44.78740065	     98.76753593
      0.05000000	     -3.33086852	     -7.90610324	      6.95693872	      0.01092468	      0.90182985	     -0.25265677	     31.59932206	      6.89299872	     -1.44282807	     23.55181811	      0.41105677	     -9.01045505	    -21.84677731	     -5.24205123	    -14.02232638	     -8.83138397	      2.08113194	     25.23734864	      0.44047483	      8.68975331	      1.49402276	     -5.24205123	     -5.25550255	     15.45069078	    -13.49262398	     -4.72414774	    -12.71015000	      3.40778233	     30.63042249	    105.49568482	     -1.73412913	     -7.79783873	     -2.13427458	     43.90675386	     98.90470943
